<svg xmlns="http://www.w3.org/2000/svg" width="674.056" height="484.848" viewBox="0 0 674.056 484.848">
  <g id="OBJECTS" transform="translate(-33.913 -88.857)">
    <g id="Groupe_101" data-name="Groupe 101" transform="translate(33.913 88.857)">
      <g id="Groupe_100" data-name="Groupe 100">
        <g id="Groupe_44" data-name="Groupe 44">
          <g id="Groupe_43" data-name="Groupe 43" opacity="0.4">
            <path id="Tracé_514" data-name="Tracé 514" d="M658.587,573.549c39.619,0,63.483-40.554,40.242-69.41a16.513,16.513,0,0,0-1.56-1.872c-14.194-16.066-35.875-21.837-54.9-30.884-5.3-2.5-10.607-5.459-14.35-10.139-5.147-6.551-6.4-15.6-5.3-24.021,4.367-35.1,42.582-56.62,48.821-91.4,4.679-26.36-11.386-53.033-33.223-66.915s-48.2-17.47-73.622-18.561c-25.581-1.092-51.317-.156-76.118-6.4-6.551-1.716-13.258-4.055-17.782-9.359-4.991-5.927-6.083-14.662-5.3-22.617C467.669,200.6,516.49,126.827,492,102.494c-9.671-9.515-22.617-14.818-35.875-13.414-13.1,1.248-25.424,7.331-36.967,14.194-24.333,14.35-109.185,109.341-139.6,123.691-29.948,14.038-64.419,9.983-97.331,9.2-32.911-.624-69.41,4.211-90.935,30.26C83.65,275.63,78.5,288.109,81,299.963c1.56,7.487,6.083,13.882,11.074,19.341,11.542,12.478,26.516,21.057,37.435,34.159s16.69,33.847,6.4,47.573c-4.055,5.3-9.827,8.735-15.442,11.854-31.664,17.938-67.227,36.187-81.109,70.97-7.019,17.781-6.863,37.435-1.716,55.84,5.615,19.5,25.113,33.223,47.573,33.223H658.587Z" transform="translate(-33.913 -88.857)" fill="#ef5665"/>
          </g>
          <path id="Tracé_515" data-name="Tracé 515" d="M611.629,502.243c-14.194-16.066-35.875-21.837-54.9-30.884-5.3-2.5-10.607-5.459-14.35-10.139-5.147-6.551-6.4-15.6-5.3-24.021,4.367-35.1,42.582-56.62,48.821-91.4,4.679-26.36-11.386-53.033-33.223-66.915s-48.2-17.47-73.622-18.561c-25.58-1.092-51.317-.156-76.117-6.4-6.551-1.716-13.258-4.055-17.782-9.359-4.991-5.927-6.083-14.662-5.3-22.617,2.184-21.369,51.005-95.147,26.516-119.479C397.939,94.2,387.02,89.212,375.79,88.9c15.442,4.211,26.672,13.1,18.561,31.2C375.166,162.21,198.91,301.187,322.757,314.913S241.492,438.76,334.924,446.4c71.282,5.771-75.026,89.376-148.024,127.122H572.947c39.619,0,63.483-40.554,40.242-69.41C612.721,503.491,612.1,502.867,611.629,502.243Z" transform="translate(51.727 -88.833)" fill="#ef5665" opacity="0.34"/>
          <path id="Tracé_516" data-name="Tracé 516" d="M106.424,198.927s128.37,44.142,185.458-59.116S-1.2,160.556,106.424,198.927Z" transform="translate(-4.902 -82.812)" fill="#ef5665" opacity="0.39"/>
          <path id="Tracé_517" data-name="Tracé 517" d="M256.134,99.6c9.047,6.083,10.919,17,1.4,34.159-40.4,73-116.36,72.374-157.538,65.667,14.974,4.679,130.554,36.811,183.743-59.584C299.652,111.3,284.367,100.068,256.134,99.6Z" transform="translate(3.082 -82.843)" fill="#ef5665" opacity="0.34"/>
        </g>
        <g id="Groupe_51" data-name="Groupe 51" transform="translate(0.399 298.922)">
          <g id="Groupe_50" data-name="Groupe 50">
            <g id="Groupe_45" data-name="Groupe 45" transform="translate(27.122)">
              <path id="Tracé_518" data-name="Tracé 518" d="M83.444,418.626s-4.679-4.367-1.56-20.9,11.074-32.6,7.175-50.537S54.432,283.7,54.432,280.741c-.156-2.964-9.515,52.877,6.4,74.87s17.782,29.636,17,41.178.156,20.9,1.872,23.553Z" transform="translate(-51.557 -280.429)" fill="#4286e8"/>
              <path id="Tracé_519" data-name="Tracé 519" d="M79.5,385.162c-1.872,7.331-2.964,26.048,0,30.416.312.468.624.156,1.092-.624-.936-3.12-1.56-8.423.156-17.47,3.12-16.534,11.074-32.6,7.175-50.537S53.3,283.464,53.3,280.5c0,0,4.679,37.9,20.121,63.8C84.652,363.169,81.376,377.831,79.5,385.162Z" transform="translate(-50.581 -280.5)" fill="#1d54b5"/>
            </g>
            <g id="Groupe_46" data-name="Groupe 46" transform="translate(61.81 40.398)">
              <path id="Tracé_520" data-name="Tracé 520" d="M76.454,402.895s-9.047-22.461,6.239-41.958,39.775-44.454,40.242-54.436c0,0,6.239,47.105-13.57,60.364S75.518,382.306,78.95,402.739Z" transform="translate(-73.796 -306.344)" fill="#4286e8"/>
              <path id="Tracé_521" data-name="Tracé 521" d="M97.173,357.4c-22.149,16.066-24.021,34.783-20.589,43.362a2.214,2.214,0,0,0,1.4,1.248c-2.964-19.809,10.919-21.993,30.416-35.251,19.809-13.258,13.57-60.364,13.57-60.364S119.322,341.339,97.173,357.4Z" transform="translate(-72.99 -306.4)" fill="#1d54b5"/>
            </g>
            <g id="Groupe_48" data-name="Groupe 48" transform="translate(0 31.508)">
              <path id="Tracé_522" data-name="Tracé 522" d="M83.819,406.609a76.939,76.939,0,0,0,1.4-24.8c-1.56-12.79-14.974-20.121-27.608-33.691-6.4-7.019-8.423-43.986-4.367-47.417,0,0-22.149,26.828-18.717,46.482s39.619,32.443,42.894,41.958a56.112,56.112,0,0,1,3.12,17.47Z" transform="translate(-34.168 -300.7)" fill="#4286e8"/>
              <g id="Groupe_47" data-name="Groupe 47" transform="translate(8.901 0.156)">
                <path id="Tracé_523" data-name="Tracé 523" d="M42.565,311.139c-7.331,19.809.156,43.83,24.489,58.8C84.992,380.861,79.22,403.79,79.22,403.79l2.964-9.047a62.477,62.477,0,0,0-.312-13.1c-1.56-12.79-14.974-20.121-27.608-33.691C48.025,341.243,46,306.615,49.429,301,48.649,302.4,45.841,306.147,42.565,311.139Z" transform="translate(-39.875 -300.688)" fill="#1d54b5"/>
                <path id="Tracé_524" data-name="Tracé 524" d="M46.2,301.268l.468-.468Q46.434,300.8,46.2,301.268Z" transform="translate(-36.335 -300.8)" fill="#49b4d6"/>
              </g>
            </g>
            <g id="Groupe_49" data-name="Groupe 49" transform="translate(69.148 88.752)">
              <path id="Tracé_525" data-name="Tracé 525" d="M78.5,384.606s5.147-19.341,18.093-21.837c12.79-2.652,27.608-21.525,28.388-25.268C124.982,337.344,122.8,373.219,78.5,384.606Z" transform="translate(-78.5 -337.344)" fill="#4286e8"/>
              <path id="Tracé_526" data-name="Tracé 526" d="M94.022,369.064c-7.8,3.9-11.074,9.2-12.322,14.038,39.463-12.634,41.49-45.7,41.49-45.7a15.3,15.3,0,0,1-2.028,3.743C117.263,348.006,107.9,362.2,94.022,369.064Z" transform="translate(-76.709 -337.4)" fill="#1d54b5"/>
            </g>
          </g>
          <path id="Tracé_527" data-name="Tracé 527" d="M120.371,363.1H53.3l7.955,50.225a7.885,7.885,0,0,0,7.8,6.551h35.719a7.885,7.885,0,0,0,7.8-6.551Z" transform="translate(-23.459 -234.262)" fill="#f95858"/>
          <path id="Tracé_528" data-name="Tracé 528" d="M119.123,371.523l1.248-8.423H53.3l1.248,8.423Z" transform="translate(-23.459 -234.262)" fill="#e53838"/>
          <path id="Tracé_529" data-name="Tracé 529" d="M91.554,363.1,83.6,413.325a7.886,7.886,0,0,1-7.8,6.551H92.022a7.885,7.885,0,0,0,7.8-6.551l7.955-50.225Z" transform="translate(-10.864 -234.262)" fill="#e53838"/>
        </g>
        <g id="Groupe_69" data-name="Groupe 69" transform="translate(100.586 154.066)">
          <g id="Groupe_52" data-name="Groupe 52" transform="translate(179.687 55.324)">
            <rect id="Rectangle_307" data-name="Rectangle 307" width="14.038" height="114.488" transform="translate(67.695 160.97)" fill="#fff"/>
            <rect id="Rectangle_308" data-name="Rectangle 308" width="5.459" height="114.488" transform="translate(76.273 160.97)" fill="#e8f2fc"/>
            <path id="Tracé_530" data-name="Tracé 530" d="M316.409,393.6H239.979a4.6,4.6,0,0,0-4.679,4.679h0a4.6,4.6,0,0,0,4.679,4.679h76.429a4.6,4.6,0,0,0,4.679-4.679h0A4.693,4.693,0,0,0,316.409,393.6Z" transform="translate(-201.453 -127.657)" fill="#fff"/>
            <path id="Tracé_531" data-name="Tracé 531" d="M316.185,393.6H239.755a4.852,4.852,0,0,0-4.055,2.34h66.291a4.6,4.6,0,0,1,4.679,4.679,5.167,5.167,0,0,1-.624,2.34h10.295a4.6,4.6,0,0,0,4.679-4.679A4.938,4.938,0,0,0,316.185,393.6Z" transform="translate(-201.229 -127.657)" fill="#e8f2fc"/>
            <rect id="Rectangle_309" data-name="Rectangle 309" width="14.038" height="10.139" transform="translate(67.695 160.97)" fill="#e8f2fc"/>
            <path id="Tracé_532" data-name="Tracé 532" d="M367.807,224.5a15.442,15.442,0,0,0-6.551-1.4H282.487a16.035,16.035,0,0,0-15.754,13.1L242.088,365.2a15.956,15.956,0,0,0,0,6.083v.156H220.251a6.551,6.551,0,1,0,0,13.1h70.814v-.156h45.546a16.035,16.035,0,0,0,15.754-13.1L377.01,242.285A15.843,15.843,0,0,0,367.807,224.5Z" transform="translate(-213.544 -223.1)" fill="#f93"/>
            <path id="Tracé_533" data-name="Tracé 533" d="M377.065,241.738,352.421,370.732a16.049,16.049,0,0,1-15.754,12.946h-45.7v.156H220.151a6.551,6.551,0,1,1,0-13.1h21.837v-.156h79.393a22.056,22.056,0,0,0,21.681-17.938L367.707,223.8A16.248,16.248,0,0,1,377.065,241.738Z" transform="translate(-213.6 -222.708)" fill="#e8f2fc"/>
            <path id="Tracé_534" data-name="Tracé 534" d="M343.28,306.1l-.156.78a22.056,22.056,0,0,1-21.681,17.938H242.05v.156H220.213a6.4,6.4,0,0,0-6.4,5.459V312.651a5.983,5.983,0,0,1,5.927-6.551Z" transform="translate(-213.506 -176.638)" fill="#fff"/>
            <path id="Tracé_535" data-name="Tracé 535" d="M357.725,224.5,333.08,353.342A22.056,22.056,0,0,1,311.4,371.28H232.006a15.957,15.957,0,0,1,0-6.083L256.651,236.2A16.187,16.187,0,0,1,272.4,223.1h78.769A15.441,15.441,0,0,1,357.725,224.5Z" transform="translate(-203.462 -223.1)" fill="#fff"/>
          </g>
          <g id="Groupe_56" data-name="Groupe 56" transform="translate(8.051 25.688)">
            <path id="Tracé_536" data-name="Tracé 536" d="M242.754,204.1H108.613a5.1,5.1,0,0,0-4.991,5.927L115.164,288.8a5.043,5.043,0,0,0,4.991,4.367H254.3a5.1,5.1,0,0,0,4.991-5.927l-11.542-78.769A5.043,5.043,0,0,0,242.754,204.1Z" transform="translate(-103.562 -204.1)" fill="#1d54b5"/>
            <path id="Tracé_537" data-name="Tracé 537" d="M223.981,204.1H108.713a5.1,5.1,0,0,0-4.991,5.927l5.147,34.783a101.723,101.723,0,0,0,41.178,8.423C188.418,253.389,211.035,232.956,223.981,204.1Z" transform="translate(-103.506 -204.1)" fill="#3070ce"/>
            <g id="Groupe_53" data-name="Groupe 53" transform="translate(49.312 60.208)">
              <path id="Tracé_538" data-name="Tracé 538" d="M164.225,242.7H138.8a3.569,3.569,0,0,0-3.587,4.055l7.643,52.877v.468l.312,2.028a3.684,3.684,0,0,0,3.588,3.12h25.113Z" transform="translate(-135.176 -242.7)" fill="#4286e8"/>
              <path id="Tracé_539" data-name="Tracé 539" d="M192.958,301.6a3.628,3.628,0,0,0-3.588-3.587H170.186a5.577,5.577,0,0,1-5.615-4.835L158.955,252h3.276a3.569,3.569,0,0,0,3.587-4.055l-.312-2.028a3.684,3.684,0,0,0-3.588-3.12h-6.707a5,5,0,0,0-4.991,5.615l7.019,52.253a5.2,5.2,0,0,0,5.147,4.523h26.828a3.569,3.569,0,0,0,3.743-3.588Z" transform="translate(-126.787 -242.644)" fill="#1d54b5"/>
            </g>
            <g id="Groupe_54" data-name="Groupe 54" transform="translate(96.922 75.338)">
              <path id="Tracé_540" data-name="Tracé 540" d="M170.379,254.74a2.34,2.34,0,1,1-2.34-2.34A2.4,2.4,0,0,1,170.379,254.74Z" transform="translate(-165.7 -252.4)" fill="#4286e8"/>
              <path id="Tracé_541" data-name="Tracé 541" d="M178.379,254.74a2.34,2.34,0,1,1-2.34-2.34A2.4,2.4,0,0,1,178.379,254.74Z" transform="translate(-161.222 -252.4)" fill="#4286e8"/>
              <circle id="Ellipse_24" data-name="Ellipse 24" cx="2.34" cy="2.34" r="2.34" transform="translate(23.085)" fill="#4286e8"/>
            </g>
            <path id="Tracé_542" data-name="Tracé 542" d="M192.745,240.7l7.019,48.2a5.043,5.043,0,0,0,4.991,4.367h2.028a5.1,5.1,0,0,0,4.991-5.927l-11.542-78.769a5.043,5.043,0,0,0-4.991-4.367h-2.028a5.1,5.1,0,0,0-4.991,5.927l4.523,30.572" transform="translate(-56.204 -204.044)" fill="#4286e8"/>
            <g id="Groupe_55" data-name="Groupe 55" transform="translate(37.166 8.735)">
              <path id="Tracé_543" data-name="Tracé 543" d="M176.071,209.7H129.278a1.974,1.974,0,0,0-1.872,2.184l.312,1.872a1.853,1.853,0,0,0,1.872,1.56h46.794a1.974,1.974,0,0,0,1.872-2.184l-.312-1.872A1.853,1.853,0,0,0,176.071,209.7Z" transform="translate(-127.389 -209.7)" fill="#4286e8"/>
            </g>
          </g>
          <g id="Groupe_65" data-name="Groupe 65" transform="translate(153.623)">
            <path id="Tracé_544" data-name="Tracé 544" d="M309.21,246.036c-1.56-11.386-18.249-6.083-11.854-16.69,5.771-9.827-.936-14.194-8.891-15.754-10.139-2.028-4.367-5.927-9.359-15.442-6.239-12.01-16.066-8.423-16.066-8.423s-12.166-6.551-24.645,3.9c-13.1,11.074-10.295,20.745-3.276,34.159,3.588,6.707-.78,12.79-3.9,25.269-3.743,14.974,14.662,44.922,54.125,24.645C300.632,269.745,309.99,251.963,309.21,246.036Z" transform="translate(-178.796 -187.592)" fill="#13448c"/>
            <path id="Tracé_545" data-name="Tracé 545" d="M270.231,229.227s-6.083.624-12.166,6.707c-4.055,4.055-24.333,44.3-24.333,44.3L215.17,223.3l-13.57,1.092s15.286,91.715,27.3,91.871c11.23.156,47.105-59.116,47.105-59.116Z" transform="translate(-194.253 -167.664)" fill="#f95858"/>
            <path id="Tracé_546" data-name="Tracé 546" d="M291.248,254.124l11.854,44.61L232.6,304.5l.312,12.79s81.265.312,96.707.156c10.139-.156-9.047-80.953-21.213-90.156-9.671-7.331-36.5-5.3-36.5-5.3L252.877,230.1s-22.149,21.993-8.891,42.582c10.451,16.222-2.808,47.885-2.808,47.885l45.078,2.652,40.242.312Z" transform="translate(-176.9 -168.54)" fill="#f95858"/>
            <path id="Tracé_547" data-name="Tracé 547" d="M243.753,300.41l2.5-.468c2.5-10.607,2.808-24.957-2.652-31.976-10.919-13.726.312-33.691,6.707-40.866h0c-.936,1.092-21.837,22.3-8.891,42.582C247.5,279.2,245.937,291.831,243.753,300.41Z" transform="translate(-174.327 -165.536)" fill="#e54848"/>
            <path id="Tracé_548" data-name="Tracé 548" d="M239.809,276.7c-7.487.312-15.442,2.964-19.185,7.331a1.526,1.526,0,0,0,1.092,2.5h18.094Z" transform="translate(-183.797 -137.771)" fill="#ffb19e"/>
            <g id="Groupe_59" data-name="Groupe 59" transform="translate(61.471)">
              <path id="Tracé_549" data-name="Tracé 549" d="M269.835,219.073V234.2l-13.57,15.442-.156-.156-3.743-7.8v-8.423a17.062,17.062,0,0,1-14.194-13.414L236.3,209.4a32.839,32.839,0,0,0,18.094-9.2,35.428,35.428,0,0,0,5.927,7.8c2.5,2.5,5.927,3.12,7.331,4.523A8.054,8.054,0,0,1,269.835,219.073Z" transform="translate(-236.3 -180.595)" fill="#ffb19e"/>
              <path id="Tracé_550" data-name="Tracé 550" d="M261.826,213.007a38.176,38.176,0,0,0-2.964-11.7c-2.808-6.239-6.707-13.57-14.662-13.57,0,0,19.653-3.12,22.929,24.177Z" transform="translate(-231.878 -187.631)" fill="#ff4751"/>
              <g id="Groupe_57" data-name="Groupe 57" transform="translate(23.822 21.282)">
                <path id="Tracé_551" data-name="Tracé 551" d="M269.341,209.893c-.624-5.3-4.991-9.047-9.827-8.579s-8.267,5.147-7.8,10.451c.624,5.3,4.991,9.047,9.827,8.579C266.377,219.72,269.809,215.04,269.341,209.893Z" transform="translate(-251.517 -201.275)" fill="#ff4751"/>
                <path id="Tracé_552" data-name="Tracé 552" d="M263.314,219.393c-4.679.468-8.891-3.12-9.515-8.267-.468-4.679,2.34-8.891,6.4-9.827h-.78c-4.835.468-8.267,5.147-7.8,10.451.624,5.3,4.991,9.047,9.827,8.579a9.193,9.193,0,0,0,4.055-1.56A8.939,8.939,0,0,1,263.314,219.393Z" transform="translate(-251.573 -201.261)" fill="#cc3241"/>
                <path id="Tracé_553" data-name="Tracé 553" d="M263.836,208.415a4.591,4.591,0,0,0-4.679-4.211,4.424,4.424,0,0,0-3.743,4.991,4.591,4.591,0,0,0,4.679,4.211A4.339,4.339,0,0,0,263.836,208.415Z" transform="translate(-249.443 -199.64)" fill="#cc3241"/>
              </g>
              <path id="Tracé_554" data-name="Tracé 554" d="M259.546,217.2a53.753,53.753,0,0,1-6.4,6.863,4.424,4.424,0,0,0-1.56,3.432l-1.248,12.322-3.743-7.8V223.6l.156-.156C246.912,223.439,255.491,222.191,259.546,217.2Z" transform="translate(-230.534 -171.078)" fill="#f48f7a"/>
              <g id="Groupe_58" data-name="Groupe 58" transform="translate(19.015 36.919)">
                <path id="Tracé_555" data-name="Tracé 555" d="M251.356,219.723l-.156-.936c4.991-.78,8.579-7.487,8.579-7.487l.78.468C260.247,212.08,256.659,218.943,251.356,219.723Z" transform="translate(-246.974 -211.3)" fill="#ff4751"/>
                <path id="Tracé_556" data-name="Tracé 556" d="M253.653,216.771c-.156-.78-1.4-1.248-2.808-.936s-2.5,1.092-2.34,1.872,1.4,1.248,2.808.936C252.873,218.487,253.809,217.551,253.653,216.771Z" transform="translate(-248.49 -208.816)" fill="#ff4751"/>
              </g>
            </g>
            <path id="Tracé_557" data-name="Tracé 557" d="M215.73,231.772s1.872-15.754.156-16.378-3.432,6.083-3.432,6.083-7.331-14.194-12.322-12.634,4.211,23.4,4.211,23.4Z" transform="translate(-195.905 -175.824)" fill="#ffb19e"/>
            <path id="Tracé_558" data-name="Tracé 558" d="M241.4,291.135l55.528-4.679a3.06,3.06,0,0,0,2.808-3.743c-2.028-10.451-7.955-40.086-8.267-39.307-.468,1.092,5.615,35.1-1.56,38.527C285.074,284.272,241.4,291.135,241.4,291.135Z" transform="translate(-171.974 -156.417)" fill="#e54848"/>
            <g id="Groupe_61" data-name="Groupe 61" transform="translate(0 151.875)">
              <g id="Groupe_60" data-name="Groupe 60" transform="translate(77.835 136.637)">
                <path id="Tracé_559" data-name="Tracé 559" d="M271.926,383.207a1.805,1.805,0,0,0-1.092.78c-3.587,4.991-6.707,6.083-12.946,6.863a2.892,2.892,0,0,0-1.092.312c.468-.78,2.5-4.055,1.092-7.175a30.336,30.336,0,0,0-3.587-5.927l9.047-5.459C263.5,372.756,268.962,379.151,271.926,383.207Z" transform="translate(-242.587 -372.6)" fill="#ffb19e"/>
                <path id="Tracé_560" data-name="Tracé 560" d="M282.836,390.956c-1.56,1.56-27.452,15.6-33.535,19.185-.78.468-2.34,1.248-2.5.468-.468-1.248,10.763-22.929,15.442-23.553,6.239-.78,9.359-2.028,12.79-6.863a1.749,1.749,0,0,1,2.964,0C280.5,383.937,284.084,389.709,282.836,390.956Z" transform="translate(-246.791 -368.807)" fill="#13448c"/>
              </g>
              <path id="Tracé_561" data-name="Tracé 561" d="M261.325,285s-62.7,29.012-64.419,49.289c-1.4,17.938,90.935,99.982,90.935,99.982l14.662-6.083-50.537-81.577s53.657-26.36,66.759-58.18Z" transform="translate(-196.89 -285)" fill="#13448c"/>
              <path id="Tracé_562" data-name="Tracé 562" d="M216.015,326.691c-4.211,8.267-7.331,19.653-9.515,29.948,7.175,8.423,16.066,17.937,25.269,27.3-6.863-26.984-12.946-54.125-10.762-58.024,4.055-7.331,30.572-27.14,49.445-36.811C270.3,288.944,225.841,307.662,216.015,326.691Z" transform="translate(-191.51 -282.705)" fill="#09326d"/>
            </g>
            <g id="Groupe_64" data-name="Groupe 64" transform="translate(29.071 153.279)">
              <g id="Groupe_62" data-name="Groupe 62" transform="translate(0.089 149.581)">
                <path id="Tracé_563" data-name="Tracé 563" d="M248.058,394.9a1.221,1.221,0,0,0-1.248.156c-5.459,2.5-8.735,2.028-14.662-.312a3.041,3.041,0,0,0-1.248-.156c.78-.468,4.211-2.34,4.523-5.615a33.091,33.091,0,0,0-.156-6.863l10.606-.312C245.718,381.645,247.434,389.912,248.058,394.9Z" transform="translate(-207.011 -381.799)" fill="#ffb19e"/>
                <path id="Tracé_564" data-name="Tracé 564" d="M256.787,404.349c-2.184.624-32.6.156-39.774.312a1.349,1.349,0,0,1-1.4-1.56c.312-1.4,20.589-14.662,24.957-12.946,5.771,2.34,9.047,2.808,14.662.312a1.9,1.9,0,0,1,2.652,1.56C258.191,396.394,258.5,403.881,256.787,404.349Z" transform="translate(-215.585 -377.206)" fill="#13448c"/>
              </g>
              <g id="Groupe_63" data-name="Groupe 63">
                <path id="Tracé_565" data-name="Tracé 565" d="M335.744,287.46s5.3,35.563-26.516,44.454a455.71,455.71,0,0,1-52.1,10.762L259,443.594h-16.69S211.585,335.813,215.953,327.7c4.991-9.047,43.986-36.811,60.832-41.8Z" transform="translate(-215.527 -285.9)" fill="#1d54b5"/>
                <path id="Tracé_566" data-name="Tracé 566" d="M246.846,342.284a419.865,419.865,0,0,0,52.1-10.763c31.82-9.047,26.516-44.454,26.516-44.454l-19.653-.468c-5.927,12.79-25.113,44.3-71.906,47.729L244.507,443.2h4.367Z" transform="translate(-205.243 -285.508)" fill="#0e367c" opacity="0.13"/>
              </g>
            </g>
          </g>
          <g id="Groupe_68" data-name="Groupe 68" transform="translate(0 148.6)">
            <g id="Groupe_66" data-name="Groupe 66" transform="translate(9.983 4.835)">
              <path id="Tracé_567" data-name="Tracé 567" d="M111.819,462.52H104.8l29.168-175.164,7.019-.156Z" transform="translate(-104.8 -285.328)" fill="#fff"/>
              <path id="Tracé_568" data-name="Tracé 568" d="M307.487,463.192h7.331L278.787,286H271.3Z" transform="translate(-11.596 -286)" fill="#fff"/>
            </g>
            <g id="Groupe_67" data-name="Groupe 67" transform="translate(37.279 4.835)">
              <path id="Tracé_569" data-name="Tracé 569" d="M129.319,296.871l1.872-9.671-7.019.156-1.872,9.515Z" transform="translate(-122.3 -285.328)" fill="#e4edf7"/>
              <path id="Tracé_570" data-name="Tracé 570" d="M281.127,297.542,278.787,286H271.3l2.34,11.542Z" transform="translate(-38.892 -286)" fill="#e4edf7"/>
            </g>
            <path id="Tracé_571" data-name="Tracé 571" d="M418,282.9H101.987a3.53,3.53,0,0,0-3.588,3.587h0a3.53,3.53,0,0,0,3.588,3.588H418.156a3.53,3.53,0,0,0,3.587-3.588h0A3.765,3.765,0,0,0,418,282.9Z" transform="translate(-98.4 -282.9)" fill="#fff"/>
          </g>
        </g>
        <g id="Groupe_84" data-name="Groupe 84" transform="translate(112.056 21.904)">
          <g id="Groupe_74" data-name="Groupe 74" transform="translate(88.324 73.31)">
            <path id="Tracé_572" data-name="Tracé 572" d="M257.246,202l-8.267-48.2a4.55,4.55,0,0,0-4.523-3.9l-77.521.78a4.591,4.591,0,0,0-4.523,5.147l7.331,42.27,3.743,24.021a1.407,1.407,0,0,0,2.5.624l9.827-14.818,66.915-.78A4.372,4.372,0,0,0,257.246,202Z" transform="translate(-162.38 -149.9)" fill="#1d54b5"/>
            <g id="Groupe_73" data-name="Groupe 73" transform="translate(21.221 14.974)">
              <g id="Groupe_70" data-name="Groupe 70">
                <path id="Tracé_573" data-name="Tracé 573" d="M222.178,159.5H177.256a1.194,1.194,0,0,0-1.248,1.4l.156,1.248a1.324,1.324,0,0,0,1.248,1.092h44.922a1.194,1.194,0,0,0,1.248-1.4l-.156-1.248A1.324,1.324,0,0,0,222.178,159.5Z" transform="translate(-175.985 -159.5)" fill="#fff"/>
              </g>
              <g id="Groupe_71" data-name="Groupe 71" transform="translate(1.404 12.01)">
                <path id="Tracé_574" data-name="Tracé 574" d="M223.078,167.2H178.156a1.194,1.194,0,0,0-1.248,1.4l.156,1.248a1.324,1.324,0,0,0,1.248,1.092h44.922a1.194,1.194,0,0,0,1.248-1.4l-.156-1.248A1.105,1.105,0,0,0,223.078,167.2Z" transform="translate(-176.885 -167.2)" fill="#fff"/>
              </g>
              <g id="Groupe_72" data-name="Groupe 72" transform="translate(14.974 24.801)">
                <path id="Tracé_575" data-name="Tracé 575" d="M207.6,175.4H186.856a1.194,1.194,0,0,0-1.248,1.4l.156,1.248a1.324,1.324,0,0,0,1.248,1.092h20.745a1.194,1.194,0,0,0,1.248-1.4l-.156-1.248A1.324,1.324,0,0,0,207.6,175.4Z" transform="translate(-185.585 -175.4)" fill="#fff"/>
              </g>
            </g>
          </g>
          <g id="Groupe_79" data-name="Groupe 79" transform="translate(411.499)">
            <path id="Tracé_576" data-name="Tracé 576" d="M456.184,151.877l10.295-45.39a2.7,2.7,0,0,0-2.808-3.588l-73.154.78a7.243,7.243,0,0,0-6.239,4.835l-9.047,39.775-5.615,22.617c-.312,1.248,1.092,1.56,2.184.468l14.818-14.038,63.171-.624A6.691,6.691,0,0,0,456.184,151.877Z" transform="translate(-369.572 -102.9)" fill="#1d54b5"/>
            <g id="Groupe_78" data-name="Groupe 78" transform="translate(28.392 14.662)">
              <g id="Groupe_75" data-name="Groupe 75" transform="translate(2.964)">
                <path id="Tracé_577" data-name="Tracé 577" d="M431.828,112.3H391.586a1.852,1.852,0,0,0-1.56,1.248l-.312,1.248a.717.717,0,0,0,.78.936h40.242a1.852,1.852,0,0,0,1.56-1.248l.312-1.248A.717.717,0,0,0,431.828,112.3Z" transform="translate(-389.675 -112.3)" fill="#fff"/>
              </g>
              <g id="Groupe_76" data-name="Groupe 76" transform="translate(0 10.763)">
                <path id="Tracé_578" data-name="Tracé 578" d="M429.928,119.2H389.686a1.852,1.852,0,0,0-1.56,1.248l-.312,1.248a.717.717,0,0,0,.78.936h40.242a1.852,1.852,0,0,0,1.56-1.248l.312-1.248C430.864,119.512,430.552,119.2,429.928,119.2Z" transform="translate(-387.774 -119.2)" fill="#fff"/>
              </g>
              <g id="Groupe_77" data-name="Groupe 77" transform="translate(7.487 22.305)">
                <path id="Tracé_579" data-name="Tracé 579" d="M413.047,126.6H394.486a1.852,1.852,0,0,0-1.56,1.248l-.312,1.248a.717.717,0,0,0,.78.936h18.561a1.852,1.852,0,0,0,1.56-1.248l.312-1.248A.717.717,0,0,0,413.047,126.6Z" transform="translate(-392.574 -126.6)" fill="#fff"/>
              </g>
            </g>
          </g>
          <g id="Groupe_83" data-name="Groupe 83" transform="translate(0 63.327)">
            <path id="Tracé_580" data-name="Tracé 580" d="M186.779,205.267a1.45,1.45,0,0,0,2.34-1.248l-9.983-57.244a3.843,3.843,0,0,0-3.743-3.276l-65.823.78a3.7,3.7,0,0,0-3.743,4.367l7.019,40.866a3.843,3.843,0,0,0,3.743,3.276l50.693-.624a10.223,10.223,0,0,1,6.551,2.34Z" transform="translate(-105.754 -143.5)" fill="#f95858"/>
            <g id="Groupe_82" data-name="Groupe 82" transform="translate(14.398 17.002)">
              <g id="Groupe_80" data-name="Groupe 80">
                <path id="Tracé_581" data-name="Tracé 581" d="M161.178,154.4H116.256a1.194,1.194,0,0,0-1.248,1.4l.156,1.248a1.324,1.324,0,0,0,1.248,1.092h44.922a1.194,1.194,0,0,0,1.248-1.4l-.156-1.248A1.324,1.324,0,0,0,161.178,154.4Z" transform="translate(-114.985 -154.4)" fill="#fff"/>
              </g>
              <g id="Groupe_81" data-name="Groupe 81" transform="translate(1.404 12.01)">
                <path id="Tracé_582" data-name="Tracé 582" d="M162.078,162.1H117.156a1.194,1.194,0,0,0-1.248,1.4l.156,1.248a1.324,1.324,0,0,0,1.248,1.092h44.922a1.194,1.194,0,0,0,1.248-1.4l-.156-1.248A1.205,1.205,0,0,0,162.078,162.1Z" transform="translate(-115.885 -162.1)" fill="#fff"/>
              </g>
            </g>
          </g>
        </g>
        <g id="Groupe_99" data-name="Groupe 99" transform="translate(403.686 38.126)">
          <g id="Groupe_97" data-name="Groupe 97" transform="translate(0)">
            <g id="Groupe_87" data-name="Groupe 87" transform="translate(0 69.254)">
              <path id="Tracé_583" data-name="Tracé 583" d="M421.036,244.5l-.312,9.047L415.265,462.87H393.584L374.4,283.495h0l-24.333,60.52,16.69,118.856H358.8l-13.258.156s-39.618-118.7-38.839-126.343,30.572-91.559,30.572-91.559Z" transform="translate(-284.901 -109.111)" fill="#1d54b5"/>
              <path id="Tracé_584" data-name="Tracé 584" d="M411.584,163.471l-40.554-5.615-.936-.156H350.6l-.156.156L327.2,163.627V294.181h84.384Z" transform="translate(-273.422 -157.7)" fill="#f95858"/>
              <path id="Tracé_585" data-name="Tracé 585" d="M425.9,185.243s2.964-18.405,5.147-18.561,1.872,8.111,1.872,8.111,12.946-13.726,18.093-10.295S438.69,189.61,438.69,189.61Z" transform="translate(-218.171 -154.203)" fill="#ffb19e"/>
              <path id="Tracé_586" data-name="Tracé 586" d="M369.9,157.856l2.184,144.124H341.665l-2.184-39.463-40.4-.624A6.141,6.141,0,0,1,293,253.939l20.121-69.878a23.875,23.875,0,0,1,17.158-16.534l39.463-9.827Z" transform="translate(-292.722 -157.7)" fill="#4286e8"/>
              <path id="Tracé_587" data-name="Tracé 587" d="M479.515,193.675,440.364,274a6.606,6.606,0,0,1-11.542.156L398.25,223.467l-1.56,78.457H364.247L355.2,157.8h.156l41.334,5.615a23.906,23.906,0,0,1,17.938,13.258l20.9,43.05a1.55,1.55,0,0,0,2.652.312l26.516-31.82Z" transform="translate(-257.748 -157.644)" fill="#4286e8"/>
              <path id="Tracé_588" data-name="Tracé 588" d="M322.6,232.7h39.775l.312-20.277-39.618-.624Z" transform="translate(-275.997 -127.416)" fill="#4286e8"/>
              <path id="Tracé_589" data-name="Tracé 589" d="M348.256,226.862c11.23-.468,23.085-4.367,28.7-10.918a2.294,2.294,0,0,0-1.716-3.743H348.1Z" transform="translate(-261.722 -127.192)" fill="#ffb19e"/>
              <path id="Tracé_590" data-name="Tracé 590" d="M346.977,225.98v-.624L322.8,225.2l2.028,38.995,7.331-32.288Z" transform="translate(-275.885 -119.914)" fill="#13448c" opacity="0.41"/>
              <path id="Tracé_591" data-name="Tracé 591" d="M387.469,250.2l-5.3,209.479h-1.56L366.1,250.2Z" transform="translate(-251.646 -105.92)" fill="#0e367c" opacity="0.32"/>
              <path id="Tracé_592" data-name="Tracé 592" d="M367.446,222.624s-53.813,3.9-53.345,2.808L323.46,193.3l.156.468.936,22.461C324.552,219.348,364.638,221.844,367.446,222.624Z" transform="translate(-280.756 -137.772)" fill="#13448c" opacity="0.41"/>
              <path id="Tracé_593" data-name="Tracé 593" d="M424.858,261.129,464.009,180.8h-.156c-4.211,0-40.554,76.118-44.3,77.989-4.367,2.184-36.655-48.041-36.655-48.041l30.572,50.693C415.967,265.652,422.363,265.5,424.858,261.129Z" transform="translate(-242.242 -144.769)" fill="#13448c" opacity="0.41"/>
              <g id="Groupe_85" data-name="Groupe 85" transform="translate(35.827 353.759)">
                <path id="Tracé_594" data-name="Tracé 594" d="M343,384.5c-4.679,9.515-26.828,14.35-26.828,14.35s-1.56,2.808.936,6.4,25.892,1.4,28.856.78a10.164,10.164,0,0,0,4.991-2.964,15.319,15.319,0,0,0,3.12,2.652c1.092.468,7.019-.624,7.019-.624,1.4-3.743,0-18.249-.468-20.589Z" transform="translate(-315.691 -384.5)" fill="#13448c"/>
              </g>
              <g id="Groupe_86" data-name="Groupe 86" transform="translate(109.791 353.759)">
                <path id="Tracé_595" data-name="Tracé 595" d="M381.812,384.5c4.679,9.515,26.828,14.35,26.828,14.35s1.56,2.808-.936,6.4-25.892,1.4-28.856.78a10.164,10.164,0,0,1-4.991-2.964,15.32,15.32,0,0,1-3.12,2.652c-1.092.468-7.019-.624-7.019-.624-1.4-3.743,0-18.249.468-20.589Z" transform="translate(-363.11 -384.5)" fill="#13448c"/>
              </g>
              <path id="Tracé_596" data-name="Tracé 596" d="M339.2,330.02l16.69,118.856h-7.955c-4.991-25.581-22.149-111.213-21.525-116.516.78-6.4,36.187-60.988,37.279-62.859Z" transform="translate(-273.875 -95.116)" fill="#0e367c" opacity="0.32"/>
            </g>
            <g id="Groupe_96" data-name="Groupe 96" transform="translate(61.421)">
              <g id="Groupe_89" data-name="Groupe 89" transform="translate(1.672)">
                <path id="Tracé_597" data-name="Tracé 597" d="M362.533,164.058c-2.964,2.34-10.139,7.331-10.139,7.331s-7.175-4.991-10.295-7.331V146.9h20.277v17.158Z" transform="translate(-328.174 -94.491)" fill="#ffb19e"/>
                <path id="Tracé_598" data-name="Tracé 598" d="M362.477,146.8v7.175a16.19,16.19,0,0,1-20.277.156V146.8h20.277Z" transform="translate(-328.118 -94.547)" fill="#ffb19e"/>
                <path id="Tracé_599" data-name="Tracé 599" d="M334.775,154.478h45.7l.78-12.79c10.139-4.211,2.5-28.388,2.5-28.388.624,5.771-15.13,6.083-21.369,4.991a16.956,16.956,0,0,0-10.451,1.56s-19.809-4.211-18.717,23.553A54.045,54.045,0,0,0,334.775,154.478Z" transform="translate(-333.172 -113.3)" fill="#13448c"/>
                <g id="Groupe_88" data-name="Groupe 88" transform="translate(0.061 18.873)">
                  <path id="Tracé_600" data-name="Tracé 600" d="M373.555,134.915V146.3a17.963,17.963,0,0,1-5.615,12.946c-.624.468-1.092,1.092-1.716,1.56a16.133,16.133,0,0,1-21.993,0l-1.716-1.56A17.448,17.448,0,0,1,336.9,146.3v-8.735s5.3-3.587,12.634-12.166C349.534,125.556,357.645,133.2,373.555,134.915Z" transform="translate(-331.146 -125.4)" fill="#ffb19e"/>
                  <path id="Tracé_601" data-name="Tracé 601" d="M362.477,148.7v4.367a16.19,16.19,0,0,1-20.277.156v-4.367A16.19,16.19,0,0,0,362.477,148.7Z" transform="translate(-328.179 -112.357)" fill="#f48f7a"/>
                  <path id="Tracé_602" data-name="Tracé 602" d="M343.488,143.9a5.81,5.81,0,0,0-8.111-8.111,3.645,3.645,0,0,0-1.092,1.092,5.81,5.81,0,0,0,8.111,8.111A2.457,2.457,0,0,0,343.488,143.9Z" transform="translate(-333.211 -120.188)" fill="#ffb19e"/>
                  <path id="Tracé_603" data-name="Tracé 603" d="M366.847,143.912c3.431-5.615-2.184-11.386-7.643-8.423a4.512,4.512,0,0,0-1.716,1.716c-2.964,5.615,2.808,11.23,8.423,7.643A1.821,1.821,0,0,0,366.847,143.912Z" transform="translate(-320.071 -120.203)" fill="#ffb19e"/>
                </g>
              </g>
              <g id="Groupe_95" data-name="Groupe 95" transform="translate(0 4.679)">
                <path id="Tracé_604" data-name="Tracé 604" d="M379.166,142.036H377.45v-5.927c0-9.983-9.047-18.094-20.277-18.094h-.78c-11.23,0-20.277,8.111-20.277,18.094v6.083H334.4v-6.083c0-10.919,9.827-19.809,21.993-19.809h.78c12.166,0,21.993,8.891,21.993,19.809Z" transform="translate(-330.812 -116.3)" fill="#a31919"/>
                <g id="Groupe_94" data-name="Groupe 94" transform="translate(0 22.617)">
                  <g id="Groupe_92" data-name="Groupe 92">
                    <g id="Groupe_90" data-name="Groupe 90" transform="translate(42.114)">
                      <path id="Tracé_605" data-name="Tracé 605" d="M363.935,130.8h0a4.86,4.86,0,0,0-4.835,4.835v8.735a4.86,4.86,0,0,0,4.835,4.835h0a4.86,4.86,0,0,0,4.835-4.835v-8.735A4.86,4.86,0,0,0,363.935,130.8Z" transform="translate(-359.1 -130.8)" fill="#f95858"/>
                      <path id="Tracé_606" data-name="Tracé 606" d="M362.7,130.8a4.554,4.554,0,0,0-1.4.312,4.868,4.868,0,0,1,3.432,4.679v8.735a4.868,4.868,0,0,1-3.432,4.679,4.554,4.554,0,0,0,1.4.312,4.86,4.86,0,0,0,4.835-4.835v-8.735A4.935,4.935,0,0,0,362.7,130.8Z" transform="translate(-357.868 -130.8)" fill="#cc3241"/>
                    </g>
                    <g id="Groupe_91" data-name="Groupe 91">
                      <path id="Tracé_607" data-name="Tracé 607" d="M336.935,130.8h0a4.86,4.86,0,0,0-4.835,4.835v8.735a4.86,4.86,0,0,0,4.835,4.835h0a4.86,4.86,0,0,0,4.835-4.835v-8.735A4.669,4.669,0,0,0,336.935,130.8Z" transform="translate(-332.1 -130.8)" fill="#f95858"/>
                      <path id="Tracé_608" data-name="Tracé 608" d="M335.7,130.8a4.554,4.554,0,0,0-1.4.312,4.868,4.868,0,0,1,3.432,4.679v8.735a4.868,4.868,0,0,1-3.432,4.679,4.554,4.554,0,0,0,1.4.312,4.86,4.86,0,0,0,4.835-4.835v-8.735A4.754,4.754,0,0,0,335.7,130.8Z" transform="translate(-330.868 -130.8)" fill="#cc3241"/>
                    </g>
                  </g>
                  <g id="Groupe_93" data-name="Groupe 93" transform="translate(29.012 15.598)">
                    <path id="Tracé_609" data-name="Tracé 609" d="M353.7,149.067v-.936c5.615-.312,10.451-7.331,10.451-7.331l.78.624C364.774,141.58,359.783,148.755,353.7,149.067Z" transform="translate(-349.021 -140.8)" fill="#ff4751"/>
                    <path id="Tracé_610" data-name="Tracé 610" d="M356.471,146.412c0-.936-1.4-1.56-2.964-1.4s-2.808.936-2.808,1.872,1.4,1.56,2.964,1.4S356.471,147.348,356.471,146.412Z" transform="translate(-350.7 -138.457)" fill="#ff4751"/>
                  </g>
                </g>
              </g>
            </g>
          </g>
          <g id="Groupe_98" data-name="Groupe 98" transform="translate(41.762 94.679)">
            <path id="Tracé_611" data-name="Tracé 611" d="M397.179,174h-70.97a6.817,6.817,0,0,0-6.707,7.331l1.872,45.7a7,7,0,0,0,6.863,6.707h66.915a7,7,0,0,0,6.863-6.707l1.872-45.7A6.817,6.817,0,0,0,397.179,174Z" transform="translate(-319.496 -174)" fill="#13448c"/>
            <path id="Tracé_612" data-name="Tracé 612" d="M396.505,174h-70.97a6.161,6.161,0,0,0-4.835,2.184,7.828,7.828,0,0,1,1.872-.312h70.97a6.817,6.817,0,0,1,6.707,7.331l-1.872,45.7a6.255,6.255,0,0,1-1.872,4.367,6.875,6.875,0,0,0,4.991-6.4l1.872-45.7A6.994,6.994,0,0,0,396.505,174Z" transform="translate(-318.822 -174)" fill="#1d54b5"/>
            <path id="Tracé_613" data-name="Tracé 613" d="M357.222,196.811a8.111,8.111,0,1,0-8.111,8.111A8.258,8.258,0,0,0,357.222,196.811Z" transform="translate(-307.459 -165.771)" fill="#4286e8"/>
          </g>
        </g>
      </g>
    </g>
  </g>
</svg>
