<svg xmlns="http://www.w3.org/2000/svg" width="22.9" height="24.457" viewBox="0 0 22.9 24.457">
  <path id="Icon_awesome-calendar-check" data-name="Icon awesome-calendar-check" d="M22.287,7.643H.613A.594.594,0,0,1,0,7.07V5.35A2.377,2.377,0,0,1,2.454,3.057H4.907V.573A.594.594,0,0,1,5.521,0H7.565a.594.594,0,0,1,.613.573V3.057h6.543V.573A.594.594,0,0,1,15.335,0h2.045a.594.594,0,0,1,.613.573V3.057h2.454A2.377,2.377,0,0,1,22.9,5.35V7.07A.594.594,0,0,1,22.287,7.643ZM.613,9.171H22.287a.594.594,0,0,1,.613.573v12.42a2.377,2.377,0,0,1-2.454,2.293H2.454A2.377,2.377,0,0,1,0,22.164V9.745A.594.594,0,0,1,.613,9.171ZM17.65,13.755,16.21,12.4a.644.644,0,0,0-.867,0l-5.42,5.024-2.35-2.214a.644.644,0,0,0-.867,0L5.253,16.547a.547.547,0,0,0,0,.811l4.222,3.978a.644.644,0,0,0,.867,0l7.307-6.774a.547.547,0,0,0,0-.811Z" fill="#434343"/>
</svg>
