<svg xmlns="http://www.w3.org/2000/svg" width="58" height="58.436" viewBox="0 0 58 58.436">
  <g id="_27._Return" data-name="27. Return" transform="translate(-0.011)">
    <path id="Tracé_44" data-name="Tracé 44" d="M29.209,0A29.219,29.219,0,0,0,7.441,48.686a23.74,23.74,0,0,0,1.826,1.936c.4.383.822.767,1.26,1.132s1.077.84,1.607,1.205H10.948a1.826,1.826,0,0,0,0,3.652h5.479a1.826,1.826,0,0,0,1.826-1.826V49.307a1.826,1.826,0,1,0-3.652,0v.858c-.548-.383-1.114-.785-1.7-1.242a8.331,8.331,0,0,1-1.041-.95c-.329-.329-1.15-1.114-1.7-1.717a25.566,25.566,0,1,1,19.047,8.528,24.781,24.781,0,0,1-5.113-.511,1.862,1.862,0,1,0-.73,3.652A29.219,29.219,0,1,0,29.209,0Z" transform="translate(0 0)" fill="#434343"/>
    <path id="Tracé_45" data-name="Tracé 45" d="M42.524,24.262A18.262,18.262,0,1,0,24.262,42.524,18.262,18.262,0,0,0,42.524,24.262Zm-32.871,0A14.609,14.609,0,1,1,24.262,38.871,14.609,14.609,0,0,1,9.652,24.262Z" transform="translate(4.948 4.957)" fill="#434343"/>
    <path id="Tracé_46" data-name="Tracé 46" d="M20.3,30.088v-.329a5.479,5.479,0,0,0-1.826-10.628,1.826,1.826,0,0,1,0-3.652h3.652a1.826,1.826,0,0,0,0-3.652H20.3a1.826,1.826,0,0,0-3.652,0v.329a5.479,5.479,0,0,0,1.826,10.628,1.826,1.826,0,1,1,0,3.652H14.826a1.826,1.826,0,1,0,0,3.652h1.826a1.826,1.826,0,0,0,3.652,0Z" transform="translate(10.731 8.262)" fill="#434343"/>
  </g>
</svg>
