<svg xmlns="http://www.w3.org/2000/svg" width="54.333" height="43.667" viewBox="0 0 54.333 43.667">
  <path id="Icon_awesome-shipping-fast" data-name="Icon awesome-shipping-fast" d="M52,29.333H50.667V20.325A4,4,0,0,0,49.492,17.5L41.167,9.175A4,4,0,0,0,38.342,8H34.667V4a4,4,0,0,0-4-4H9.333a4,4,0,0,0-4,4V8H.667A.669.669,0,0,0,0,8.667V10a.669.669,0,0,0,.667.667H23.333a.669.669,0,0,1,.667.667v1.333a.669.669,0,0,1-.667.667h-20A.669.669,0,0,0,2.667,14v1.333A.669.669,0,0,0,3.333,16H20.667a.669.669,0,0,1,.667.667V18a.669.669,0,0,1-.667.667h-20A.669.669,0,0,0,0,19.333v1.333a.669.669,0,0,0,.667.667H18a.669.669,0,0,1,.667.667v1.333A.669.669,0,0,1,18,24H5.333V34.667a8,8,0,0,0,16,0H32a8,8,0,0,0,16,0h4a1.337,1.337,0,0,0,1.333-1.333V30.667A1.337,1.337,0,0,0,52,29.333ZM13.333,38.667a4,4,0,1,1,4-4A4,4,0,0,1,13.333,38.667Zm26.667,0a4,4,0,1,1,4-4A4,4,0,0,1,40,38.667Zm6.667-17.333h-12V12h3.675l8.325,8.325Z" transform="translate(0.5 0.5)" fill="#434343" stroke="#434343" stroke-width="1"/>
</svg>
