<svg xmlns="http://www.w3.org/2000/svg" width="48.745" height="54.462" viewBox="0 0 48.745 54.462">
  <path id="secure-svgrepo-com" d="M59.38,7.483A1.747,1.747,0,0,0,58.118,6.04L36.631.064a1.746,1.746,0,0,0-.936,0L14.207,6.04a1.747,1.747,0,0,0-1.262,1.443c-.125.9-2.968,22.07,4.325,32.6A34.3,34.3,0,0,0,35.752,53.413a1.752,1.752,0,0,0,.82,0A34.3,34.3,0,0,0,55.055,40.086C62.348,29.553,59.5,8.379,59.38,7.483ZM50.019,19.844,35.363,34.5a1.747,1.747,0,0,1-2.471,0L23.83,25.439a1.747,1.747,0,0,1,0-2.471l1.8-1.8a1.747,1.747,0,0,1,2.471,0L34.127,27.2,45.749,15.574a1.747,1.747,0,0,1,2.471,0l1.8,1.8A1.747,1.747,0,0,1,50.019,19.844Z" transform="translate(-11.79 0.501)" fill="#434343" stroke="#434343" stroke-width="1"/>
</svg>
