<svg xmlns="http://www.w3.org/2000/svg" width="46.608" height="53.325" viewBox="0 0 46.608 53.325">
  <path id="car-repair-svgrepo-com" d="M41.452,30.34l-3.836-7.672a3.662,3.662,0,0,0-3.138-1.744H12.856a3.662,3.662,0,0,0-3.138,1.744L5.882,30.34,1.558,34.357A1.744,1.744,0,0,0,1,35.637V50.566a1.744,1.744,0,0,0,1.744,1.744H9.718c.7,0,1.744-.7,1.744-1.395V48.822h24.41v1.744c0,.7.7,1.744,1.395,1.744H44.59a1.744,1.744,0,0,0,1.744-1.744V35.637a1.744,1.744,0,0,0-.558-1.28ZM13.205,24.412H34.128l3.487,6.974H9.718Zm1.744,16.041c0,.7-1.046,1.395-1.744,1.395H5.882c-.7,0-1.395-1.046-1.395-1.744V36.268c.349-1.046,1.046-1.744,2.092-1.395l6.974,1.395c.7,0,1.395,1.046,1.395,1.744Zm27.9-.349c0,.7-.7,1.744-1.395,1.744H34.128c-.7,0-1.744-.7-1.744-1.395V38.012c0-.7.7-1.744,1.395-1.744l6.974-1.395c1.046-.349,1.744.349,2.092,1.395ZM46.334,6.976v3.487a3.519,3.519,0,0,1-3.546,3.487H16.162A8.889,8.889,0,0,1,1,12.206H9.718V5.232H1A8.889,8.889,0,0,1,16.162,3.488H42.787A3.519,3.519,0,0,1,46.334,6.976Z" transform="translate(-0.226 0.515)" fill="#434343" stroke="#434343" stroke-width="1"/>
</svg>
