<svg xmlns="http://www.w3.org/2000/svg" width="76.083" height="58.945" viewBox="0 0 76.083 58.945">
  <path id="Icon_simple-minutemailer" data-name="Icon simple-minutemailer" d="M17.639,4.055,28.576,15.892,20.859,31.1l16.294-2.92,7.418,17.9L76.083,4.761Zm-2.016,25.64L18.656,27.2l-3.912,1.236-.4-.571L15.962,26.3l-2.121.856A21.594,21.594,0,0,0,6.762,63,21.44,21.44,0,0,1,3.956,52.364,22.132,22.132,0,0,1,17.635,32.012l1-2.428-2.378,1.049-.669-.9.035-.035Zm13.834-6.245,5.066-8.943L64.316,7.529Z" transform="translate(0 -4.055)" opacity="0.7"/>
</svg>
