<svg xmlns="http://www.w3.org/2000/svg" xmlns:xlink="http://www.w3.org/1999/xlink" width="536" height="100" viewBox="0 0 536 100">
  <defs>
    <linearGradient id="linear-gradient" x1="-0.492" y1="0.5" x2="1.307" y2="0.5" gradientUnits="objectBoundingBox">
      <stop offset="0" stop-color="#6cc5da"/>
      <stop offset="1" stop-color="#00377a"/>
    </linearGradient>
    <linearGradient id="linear-gradient-2" x1="0.11" y1="0.5" x2="1.11" y2="0.5" gradientUnits="objectBoundingBox">
      <stop offset="0" stop-color="#6cc5da"/>
      <stop offset="0.13" stop-color="#66bdd4"/>
      <stop offset="0.34" stop-color="#54a6c5"/>
      <stop offset="0.59" stop-color="#3880ab"/>
      <stop offset="0.89" stop-color="#104c88"/>
      <stop offset="1" stop-color="#00377a"/>
    </linearGradient>
  </defs>
  <g id="LOGO" transform="translate(-140 -80)">
    <g id="LOGO-2" data-name="LOGO" transform="translate(-42.372 80)">
      <g id="Calque_2" data-name="Calque 2" transform="translate(200.506 0)">
        <path id="Tracé_32" data-name="Tracé 32" d="M461.354,347.29l-11.284,76.5s7.417,2.38,21.279,2.344L483.6,347.29Z" transform="translate(-450.07 -347.29)" fill="#3294be"/>
        <path id="Tracé_33" data-name="Tracé 33" d="M514.395,347.29l-11.6,78.519s19.017-3.683,22.568-6.817l10.958-71.7Z" transform="translate(-476.351 -347.29)" fill="#3294be"/>
        <path id="Tracé_34" data-name="Tracé 34" d="M568.386,347.29,558.07,418.515s20.311-7.617,22.889-11.578l8.706-59.647Z" transform="translate(-503.908 -347.29)" fill="#3294be"/>
      </g>
      <g id="Calque_3" data-name="Calque 3" transform="translate(182.372 26.267)">
        <path id="Tracé_35" data-name="Tracé 35" d="M516.619,403.664v-5.058c0-.513,6.519.826,10.938,3.047,6.575,3.288,9.98,9.849,7.593,17.246-1.284,3.975-3.857,7.376-6.635,10.449-8.6,9.521-19.493,16.62-30.938,22.191a133.38,133.38,0,0,1-46.113,13.2c-11.484,1.026-31.846,2.924-36.71-11.337a15.966,15.966,0,0,1-.757-3.488c-1.158-10.834,9.9-20.1,18.054-24.93v4.181c-5.045,4.217-9.99,10.305-11.394,16.989a8,8,0,0,0,.933,6.156,7.205,7.205,0,0,0,3.651,2.939c13.149,4.842,28.836,2.534,42.126-.564a124.054,124.054,0,0,0,38.114-15.353c8.771-5.427,10.958-7.833,16.048-12.26a32.655,32.655,0,0,0,6.615-7.843c1.495-2.714,2.081-6.1.8-8.91a10.3,10.3,0,0,0-5.346-4.812C523.184,405.316,516.619,403.295,516.619,403.664Z" transform="translate(-413.912 -398.497)" fill="url(#linear-gradient)"/>
        <g id="Groupe_2" data-name="Groupe 2">
          <g id="Groupe_1" data-name="Groupe 1" opacity="0.75">
            <path id="Tracé_36" data-name="Tracé 36" d="M516.619,403.664v-5.058c0-.513,6.519.826,10.938,3.047,6.575,3.288,9.98,9.849,7.593,17.246-1.284,3.975-3.857,7.376-6.635,10.449-8.6,9.521-19.493,16.62-30.938,22.191a133.38,133.38,0,0,1-46.113,13.2c-11.484,1.026-31.846,2.924-36.71-11.337a15.966,15.966,0,0,1-.757-3.488c-1.158-10.834,9.9-20.1,18.054-24.93v4.181c-5.045,4.217-9.99,10.305-11.394,16.989a8,8,0,0,0,.933,6.156,7.205,7.205,0,0,0,3.651,2.939c13.149,4.842,28.836,2.534,42.126-.564a124.054,124.054,0,0,0,38.114-15.353c8.771-5.427,10.958-7.833,16.048-12.26a32.655,32.655,0,0,0,6.615-7.843c1.495-2.714,2.081-6.1.8-8.91a10.3,10.3,0,0,0-5.346-4.812C523.184,405.316,516.619,403.295,516.619,403.664Z" transform="translate(-413.912 -398.497)" fill="#fff"/>
          </g>
        </g>
      </g>
      <g id="Calque_4" data-name="Calque 4" transform="translate(198.249 57.708)">
        <path id="Tracé_37" data-name="Tracé 37" d="M445.57,499.032s66.093,5.935,105.1-39.242C550.67,459.79,521.011,515.518,445.57,499.032Z" transform="translate(-445.57 -459.79)" fill="url(#linear-gradient-2)"/>
        <g id="Groupe_4" data-name="Groupe 4" transform="translate(0)">
          <g id="Groupe_3" data-name="Groupe 3" opacity="0.75">
            <path id="Tracé_38" data-name="Tracé 38" d="M445.57,499.032s66.093,5.935,105.1-39.242C550.67,459.79,521.011,515.518,445.57,499.032Z" transform="translate(-445.57 -459.79)" fill="#fff"/>
          </g>
        </g>
      </g>
    </g>
    <g id="Calque_5" data-name="Calque 5" transform="translate(277 -136.207)">
      <path id="Tracé_1" data-name="Tracé 1" d="M238.621,581.23H249.93c7.188,0,12.308,2.364,12.308,8.065,0,3.766-2.727,7.209-7.627,8.686l-.107.217c4.034.968,5.994,3.1,5.994,6.347,0,8.388-7.3,11.614-15.582,11.614H231.54Zm6.968,28.4c4.36,0,6.54-1.861,6.54-4.734,0-2.581-1.527-3.871-4.794-3.871H243.3l-1.74,8.605Zm1.885-14.412c4.247,0,5.881-1.725,5.881-4.411,0-1.936-1.52-3.015-4.794-3.015h-2.513l-1.527,7.445Z" transform="translate(-231.54 -347.685)" fill="#e91d2b"/>
      <path id="Tracé_2" data-name="Tracé 2" d="M295.136,581.23H305.59l3.38,34.954h-9.154l-.54-18.5c-.113-3.332-.22-6.452-.22-10h-.207c-1.414,3.443-2.614,6.669-4.134,10l-8.5,18.5H276.62Zm-7.408,20.542h16.449l-1.527,6.452H286.2Z" transform="translate(-248.297 -347.685)" fill="#e91d2b"/>
      <path id="Tracé_3" data-name="Tracé 3" d="M340.391,581.23h8.714l-7.081,34.954H333.31Z" transform="translate(-269.369 -347.685)" fill="#e91d2b"/>
      <path id="Tracé_4" data-name="Tracé 4" d="M367.261,581.23h11.655c7.081,0,12.528,2.482,12.528,9.25,0,9.678-7.954,13.649-16.335,13.649H371.3l-2.4,12.042H360.18Zm8.608,16.131c4.681,0,6.968-2.258,6.968-5.584,0-2.581-1.853-3.766-5.121-3.766h-3.141l-1.853,9.356Zm-1.634,4.734,6.207-5.584,7.734,19.68h-9.154Z" transform="translate(-279.357 -347.685)" fill="#e91d2b"/>
      <path id="Tracé_5" data-name="Tracé 5" d="M420.311,581.23h8.714l-2.746,13.122h10.561l2.633-13.122h8.708l-7.075,34.954h-8.7l2.94-14.307H424.778l-2.834,14.307H413.23Z" transform="translate(-299.077 -347.685)" fill="#e91d2b"/>
      <path id="Tracé_6" data-name="Tracé 6" d="M495.211,581.23H506.9c7.081,0,12.528,2.482,12.528,9.25,0,9.678-7.954,13.649-16.335,13.649h-3.814l-2.431,12.055H488.13Zm8.6,16.131c4.687,0,6.974-2.258,6.974-5.584,0-2.581-1.885-3.766-5.121-3.766h-3.141l-1.847,9.356Zm-1.634,4.734,6.214-5.584,7.728,19.68h-9.148Z" transform="translate(-326.918 -347.685)" fill="#3294be"/>
      <path id="Tracé_7" data-name="Tracé 7" d="M550.856,581.23h10.461l3.374,34.954h-9.148l-.547-18.5c-.107-3.332-.22-6.452-.22-10h-.214c-1.42,3.443-2.614,6.669-4.14,10l-8.494,18.5H532.34Zm-7.42,20.542H559.9l-1.527,6.452H541.928Z" transform="translate(-343.351 -347.685)" fill="#3294be"/>
      <path id="Tracé_8" data-name="Tracé 8" d="M596.1,581.23h8.281c9.908,0,15.9,4.3,15.9,13.767,0,14.2-8.494,21.187-19.609,21.187H589Zm4.36,28.074c5.881,0,10.888-3.66,10.888-13.767,0-5.491-3.047-7.445-7.188-7.445h-.76l-4.247,21.193Z" transform="translate(-364.412 -347.685)" fill="#3294be"/>
      <path id="Tracé_9" data-name="Tracé 9" d="M650.381,581.23H659.1l-7.081,34.954H643.3Z" transform="translate(-384.596 -347.685)" fill="#3294be"/>
      <path id="Tracé_10" data-name="Tracé 10" d="M680.712,581.23h10.455l3.38,34.954h-9.154l-.54-18.5c-.113-3.332-.22-6.452-.22-10h-.22c-1.414,3.443-2.614,6.669-4.14,10l-8.494,18.5H662.19ZM673.3,601.772h16.449l-1.527,6.452H671.778Z" transform="translate(-391.618 -347.685)" fill="#3294be"/>
      <path id="Tracé_11" data-name="Tracé 11" d="M727.3,588.433H718.37l1.414-7.2H746.36l-1.414,7.2h-8.934l-5.554,27.751h-8.714Z" transform="translate(-412.501 -347.685)" fill="#3294be"/>
      <path id="Tracé_12" data-name="Tracé 12" d="M761.36,601.594c0-13.029,8.934-21.4,18.3-21.4,8.168,0,13.722,5.379,13.722,14.84,0,13.029-8.928,21.4-18.3,21.4C766.92,616.435,761.36,611.093,761.36,601.594Zm23.1-6.012c0-5.056-1.96-7.96-5.227-7.96-4.034,0-8.934,5.379-8.934,13.444,0,5.056,1.96,7.96,5.227,7.96C779.555,609.014,784.456,603.648,784.456,595.582Z" transform="translate(-428.481 -347.29)" fill="#3294be"/>
      <path id="Tracé_13" data-name="Tracé 13" d="M823.921,581.23h11.655c7.081,0,12.528,2.482,12.528,9.25,0,9.678-7.948,13.649-16.335,13.649h-3.814l-2.4,12.042H816.84Zm8.608,16.131c4.681,0,6.968-2.258,6.968-5.584,0-2.581-1.847-3.766-5.114-3.766H831.24l-1.885,9.356Zm-1.634,4.734,6.207-5.584,7.734,19.68h-9.148Z" transform="translate(-449.104 -347.685)" fill="#3294be"/>
      <path id="Tracé_14" data-name="Tracé 14" d="M231.82,668.608c0-5.745,3.77-11.558,9.424-11.558a5.135,5.135,0,0,1,4.486,2.705L244.2,660.9a3.515,3.515,0,0,0-3.079-1.973c-4.329,0-7.081,5.063-7.081,9.48,0,3.319,1.389,5.7,4.637,5.7a5.842,5.842,0,0,0,3.864-1.632l.993,1.4a7.862,7.862,0,0,1-5.24,2.1C234.126,675.966,231.82,672.976,231.82,668.608Z" transform="translate(-231.644 -376.465)" fill="#3294be"/>
      <path id="Tracé_15" data-name="Tracé 15" d="M266.826,657.59h2.513l2.086,18.246h-2.243l-.942-10.479c-.157-1.936-.358-3.865-.5-5.944h-.088c-.968,2.091-1.885,3.933-2.915,5.944l-5.416,10.479H256.93ZM261.8,668.46h8l-.389,1.681h-8.036Z" transform="translate(-240.978 -376.67)" fill="#3294be"/>
      <path id="Tracé_16" data-name="Tracé 16" d="M292.7,657.59h2.161l-3.273,16.422h7.678l-.371,1.861H289.06Z" transform="translate(-252.921 -376.67)" fill="#3294be"/>
      <path id="Tracé_17" data-name="Tracé 17" d="M318.833,657.59h2.576l1.59,9.858.628,3.766h.107l1.954-3.766,5.41-9.858h2.576l-3.682,18.246h-2.061l2.086-10.293c.352-1.65.886-3.772,1.319-5.36h-.1l-2.193,4.051-5.378,9.691h-1.213l-1.69-9.691-.628-4.051h-.1c-.232,1.625-.478,3.722-.785,5.36l-2.055,10.293H315.17Z" transform="translate(-262.626 -376.67)" fill="#3294be"/>
      <path id="Tracé_18" data-name="Tracé 18" d="M384.034,657.59h3.38c5.026,0,7.715,2.649,7.715,7.122,0,6.632-3.694,11.13-9.852,11.13H380.39Zm1.257,16.484c4.718,0,7.659-3.791,7.659-9.226,0-3.437-1.941-5.491-5.6-5.491H385.8l-2.94,14.716Z" transform="translate(-286.87 -376.67)" fill="#3294be"/>
      <path id="Tracé_19" data-name="Tracé 19" d="M413.35,668.329c0-5.584,3.638-11.279,8.871-11.279,4.059,0,6.283,3.028,6.283,7.643,0,5.584-3.644,11.273-8.871,11.273C415.587,675.966,413.35,672.945,413.35,668.329Zm12.974-3.462c0-3.567-1.313-5.944-4.21-5.944-3.914,0-6.553,4.963-6.553,9.232,0,3.567,1.319,5.944,4.21,5.944C423.673,674.1,426.324,669.142,426.324,664.867Z" transform="translate(-299.121 -376.465)" fill="#3294be"/>
      <path id="Tracé_20" data-name="Tracé 20" d="M448.859,657.59h2.205l-.264,10.038c-.107,1.961-.145,3.952-.283,5.925h.113c.861-1.973,1.772-3.971,2.589-5.925l4.555-10.038h1.96l.245,10.038c.05,1.942.044,3.946.038,5.925h.107c.754-1.979,1.546-3.971,2.312-5.925l3.952-10.038H468.5l-7.508,18.246h-2.708l-.195-11.167c0-1.346,0-2.835.075-4.287h-.113c-.521,1.439-1.156,2.829-1.772,4.287l-4.963,11.167h-2.7Z" transform="translate(-312.231 -376.67)" fill="#3294be"/>
      <path id="Tracé_21" data-name="Tracé 21" d="M488.657,657.59h2.168l4.147,11.695,1.169,3.809h.113c.239-1.805.452-3.933.829-5.82l1.935-9.685h2.08l-3.644,18.246h-2.136l-4.109-11.658-1.181-3.915h-.107c-.239,1.861-.509,3.915-.886,5.764l-1.941,9.809H485Z" transform="translate(-325.754 -376.67)" fill="#3294be"/>
      <path id="Tracé_22" data-name="Tracé 22" d="M551.546,668.708,548.58,657.59H550.8l1.257,5.255c.314,1.352.584,2.575.911,3.964h.094c.842-1.359,1.634-2.649,2.513-3.989l3.449-5.23h2.318l-7.609,11.118-1.47,7.129H550.1Z" transform="translate(-349.388 -376.67)" fill="#3294be"/>
      <path id="Tracé_23" data-name="Tracé 23" d="M572.72,668.329c0-5.584,3.638-11.279,8.871-11.279,4.059,0,6.283,3.028,6.283,7.643,0,5.584-3.644,11.273-8.871,11.273C574.957,675.966,572.72,672.945,572.72,668.329Zm12.962-3.462c0-3.567-1.313-5.944-4.2-5.944-3.92,0-6.559,4.963-6.559,9.232,0,3.567,1.319,5.944,4.21,5.944,3.914,0,6.553-4.957,6.553-9.232Z" transform="translate(-358.361 -376.465)" fill="#3294be"/>
      <path id="Tracé_24" data-name="Tracé 24" d="M609.614,657.59h2.161l-2.086,10.435a10.088,10.088,0,0,0-.258,2.2c0,2.612,1.15,4.082,3.688,4.082,2.1,0,3.864-1.539,4.649-5.534L620,657.6h2.124l-2.268,11.279c-1.037,5.255-3.581,7.3-6.848,7.3-3.688,0-5.736-1.985-5.736-5.764a15.237,15.237,0,0,1,.283-2.569Z" transform="translate(-371.204 -376.67)" fill="#3294be"/>
      <path id="Tracé_25" data-name="Tracé 25" d="M641.844,657.59h5.026c3.4,0,5.655,1.21,5.655,4.256,0,4.089-3.355,6.254-7.42,6.254h-3.2l-1.539,7.737H638.2Zm3.141,8.766c3.474,0,5.378-1.625,5.378-4.231,0-2-1.4-2.786-4.084-2.786h-2.664l-1.363,7.017Zm-.094,1.321,1.652-1.278,3.826,9.437h-2.318Z" transform="translate(-382.701 -376.67)" fill="#3294be"/>
      <path id="Tracé_26" data-name="Tracé 26" d="M700.434,657.59h10.053l-.371,1.83h-7.91l-1.175,5.913h6.7l-.371,1.824h-6.666l-1.414,6.825h8.168l-.371,1.861H696.79Z" transform="translate(-404.479 -376.67)" fill="#3294be"/>
      <path id="Tracé_27" data-name="Tracé 27" d="M728.353,657.59h2.186l4.147,11.695,1.169,3.809h.113c.239-1.805.452-3.933.829-5.82l1.91-9.685h2.08l-3.638,18.246h-2.136L730.9,664.179l-1.187-3.921H729.6c-.232,1.861-.509,3.915-.88,5.764l-1.954,9.815h-2.08Z" transform="translate(-414.85 -376.67)" fill="#3294be"/>
      <path id="Tracé_28" data-name="Tracé 28" d="M758.75,668.608c0-5.8,3.726-11.558,9.682-11.558a5.162,5.162,0,0,1,4.586,2.705l-1.546,1.142a3.586,3.586,0,0,0-3.185-1.973c-4.568,0-7.357,5.063-7.357,9.48,0,3.245,1.351,5.714,4.85,5.714a4.653,4.653,0,0,0,3.1-1.111L769.9,668h-3.77l.352-1.787h5.711l-1.583,7.9a8.027,8.027,0,0,1-5.164,1.861C761.094,675.966,758.75,673.05,758.75,668.608Z" transform="translate(-427.511 -376.465)" fill="#3294be"/>
      <path id="Tracé_29" data-name="Tracé 29" d="M793.094,657.59h2.161l-3.65,18.246H789.45Z" transform="translate(-438.922 -376.67)" fill="#3294be"/>
      <path id="Tracé_30" data-name="Tracé 30" d="M809.924,657.59h2.168l4.153,11.695,1.169,3.809h.107c.239-1.805.452-3.933.829-5.82l1.941-9.685h2.073l-3.644,18.246h-2.13l-4.115-11.658-1.187-3.921h-.107c-.239,1.861-.509,3.915-.886,5.764l-1.935,9.815h-2.08Z" transform="translate(-445.178 -376.67)" fill="#3294be"/>
      <path id="Tracé_31" data-name="Tracé 31" d="M842.974,657.59h10.053l-.371,1.83h-7.879l-1.175,5.913h6.7l-.371,1.824h-6.66l-1.414,6.825h8.168l-.371,1.861H839.33Z" transform="translate(-457.463 -376.67)" fill="#3294be"/>
    </g>
  </g>
</svg>
